<?xml version="1.0" standalone="no"?>
<!DOCTYPE svg PUBLIC "-//W3C//DTD SVG 20010904//EN"
 "http://www.w3.org/TR/2001/REC-SVG-20010904/DTD/svg10.dtd">
<svg version="1.0" xmlns="http://www.w3.org/2000/svg"
 width="512.000000pt" height="512.000000pt" viewBox="0 0 512.000000 512.000000"
 preserveAspectRatio="xMidYMid meet">
<metadata>
Created by potrace 1.11, written by Peter Selinger 2001-2013
</metadata>
<g transform="translate(0.000000,512.000000) scale(0.100000,-0.100000)"
fill="#000000" stroke="none">
<path d="M3417 4398 c-13 -24 -39 -70 -57 -103 -18 -33 -45 -82 -60 -110 -39
-71 -64 -117 -230 -420 -81 -148 -159 -290 -172 -315 -14 -25 -67 -121 -118
-215 -51 -93 -104 -190 -118 -215 -13 -25 -41 -74 -60 -110 -19 -36 -71 -130
-115 -210 -43 -80 -92 -167 -107 -195 -55 -100 -154 -281 -183 -335 -16 -30
-42 -77 -57 -105 -56 -101 -85 -155 -203 -370 -66 -121 -132 -242 -147 -270
-75 -135 -287 -525 -305 -557 -10 -21 -17 -39 -15 -41 3 -2 65 -36 139 -76
105 -58 135 -71 142 -60 5 8 46 82 91 164 44 83 98 179 118 215 21 36 61 110
90 165 29 55 56 105 60 110 4 6 27 46 50 90 37 68 114 210 230 420 15 28 69
127 120 220 51 94 103 188 115 210 12 22 36 66 53 98 65 117 90 163 120 217
16 30 54 100 84 155 30 55 71 129 90 165 67 122 315 575 373 680 32 58 72 132
90 165 18 33 55 101 82 150 27 50 66 119 85 155 19 36 54 99 76 141 l42 75
-73 41 c-39 22 -102 57 -138 77 l-67 36 -25 -42z"/>
<path d="M735 3179 l-620 -619 620 -620 c341 -341 623 -620 626 -620 4 0 56
49 117 110 l111 110 -510 509 -509 509 510 509 509 509 -112 112 c-62 62 -114
112 -117 111 -3 0 -284 -279 -625 -620z"/>
<path d="M3647 3692 c-59 -59 -107 -111 -107 -115 0 -4 228 -235 506 -513
l506 -506 -510 -510 -509 -509 108 -107 c60 -59 114 -107 119 -107 10 0 1240
1225 1240 1234 0 7 -1235 1241 -1241 1241 -2 0 -53 -48 -112 -108z"/>
</g>
</svg>
