<svg id="Capa_1" enable-background="new 0 0 512 512" height="512" viewBox="0 0 512 512" width="512" xmlns="http://www.w3.org/2000/svg"><g><path d="m497 0h-482c-8.284 0-15 6.716-15 15v482c0 8.284 6.716 15 15 15h482c8.284 0 15-6.716 15-15v-482c0-8.284-6.716-15-15-15zm-15 30v91h-452v-91zm-452 452v-331h452v331z"/><path d="m136 331h150c8.284 0 15-6.716 15-15s-6.716-15-15-15h-150c-8.284 0-15 6.716-15 15s6.716 15 15 15z"/><path d="m136 391h120c8.284 0 15-6.716 15-15s-6.716-15-15-15h-120c-8.284 0-15 6.716-15 15s6.716 15 15 15z"/><path d="m286 421h-150c-8.284 0-15 6.716-15 15s6.716 15 15 15h150c8.284 0 15-6.716 15-15s-6.716-15-15-15z"/><path d="m185.406 266.631c5.857 5.858 15.355 5.859 21.213 0 5.858-5.858 5.858-15.355 0-21.213l-19.394-19.394 19.418-19.418c5.858-5.858 5.858-15.355 0-21.213-5.857-5.857-15.355-5.858-21.213 0l-30.024 30.025c-5.858 5.858-5.858 15.355 0 21.213z"/><path d="m324.774 226.05-19.355 19.356c-5.858 5.858-5.858 15.355 0 21.213 5.857 5.857 15.355 5.858 21.213 0l29.962-29.963c5.858-5.858 5.858-15.355 0-21.213l-30.05-30.05c-5.857-5.858-15.355-5.858-21.213 0s-5.858 15.355 0 21.213z"/><path d="m234.292 269.417c7.424 3.712 16.426.687 20.124-6.708l30-60c3.705-7.41.702-16.419-6.708-20.125-7.409-3.705-16.42-.701-20.124 6.708l-30 60c-3.705 7.41-.702 16.419 6.708 20.125z"/><path d="m376 301h-30c-8.284 0-15 6.716-15 15s6.716 15 15 15h30c8.284 0 15-6.716 15-15s-6.716-15-15-15z"/><path d="m376 361h-60c-8.284 0-15 6.716-15 15s6.716 15 15 15h60c8.284 0 15-6.716 15-15s-6.716-15-15-15z"/><path d="m376 421h-30c-8.284 0-15 6.716-15 15s6.716 15 15 15h30c8.284 0 15-6.716 15-15s-6.716-15-15-15z"/><circle cx="436" cy="76" r="15"/><circle cx="376" cy="76" r="15"/><circle cx="316" cy="76" r="15"/></g></svg>